# xmcd
#
# Track frame offsets:
#	150
#	16538
#	34050
#	46597
#	72492
#	89529
#	106548
#	119586
#
# Disc length: 1629 seconds
#
# Revision: 0
# Processed by: cddbd v1.5.2PL0 Copyright (c) Steve Scherf et al.
# Submitted via: dBpowerAMP V4.0
#
DISCID=59065b08
DTITLE=Various Artist - CDX 169B
DYEAR=1997
DGENRE=Country
TTITLE0=Var - You Light Up My Life
TTITLE1=East Kentucky Morning
TTITLE2=Various Artist - Feet Of Clay
TTITLE3=Various Artist - Love Travels
TTITLE4=Various Artist - The Last Time
TTITLE5=Various Artist - Kentucky Wildcat
TTITLE6=Various Artist - The Shots You Never Take
TTITLE7=Various Artist - PSA Make A Wish Foundation
EXTD=
EXTT0=
EXTT1=
EXTT2=
EXTT3=
EXTT4=
EXTT5=
EXTT6=
EXTT7=
PLAYORDER=
